<mxfile host="app.diagrams.net" modified="2022-09-22T12:27:01.385Z" agent="5.0 (Windows NT 10.0; Win64; x64) AppleWebKit/537.36 (KHTML, like Gecko) Chrome/105.0.0.0 Safari/537.36" etag="8lVvHuqX7wi1HW5sE3i0" version="20.1.1" type="github">
  <diagram name="Page-1" id="8ce9d11a-91a2-4d17-14d8-a56ed91bf033">
    <mxGraphModel dx="2062" dy="1114" grid="0" gridSize="10" guides="1" tooltips="1" connect="1" arrows="1" fold="1" page="1" pageScale="1" pageWidth="1100" pageHeight="850" background="#F7F7F7" math="0" shadow="0">
      <root>
        <mxCell id="0" />
        <mxCell id="1" parent="0" />
        <mxCell id="O-cmX9a5oAONbKl0CvVW-1" value="Year / 4" style="rounded=1;whiteSpace=wrap;html=1;" vertex="1" parent="1">
          <mxGeometry x="470" y="100" width="120" height="70" as="geometry" />
        </mxCell>
        <mxCell id="O-cmX9a5oAONbKl0CvVW-2" value="" style="strokeWidth=2;html=1;shape=mxgraph.flowchart.annotation_2;align=left;labelPosition=right;pointerEvents=1;rotation=90;" vertex="1" parent="1">
          <mxGeometry x="482.5" y="100" width="95" height="242.5" as="geometry" />
        </mxCell>
        <mxCell id="O-cmX9a5oAONbKl0CvVW-3" value="Year / 100" style="rounded=1;whiteSpace=wrap;html=1;" vertex="1" parent="1">
          <mxGeometry x="350" y="268" width="120" height="60" as="geometry" />
        </mxCell>
        <mxCell id="O-cmX9a5oAONbKl0CvVW-4" value="Not leap year" style="rounded=1;whiteSpace=wrap;html=1;" vertex="1" parent="1">
          <mxGeometry x="590" y="268" width="120" height="60" as="geometry" />
        </mxCell>
        <mxCell id="O-cmX9a5oAONbKl0CvVW-5" value="Yes" style="text;html=1;strokeColor=none;fillColor=none;align=center;verticalAlign=middle;whiteSpace=wrap;rounded=0;" vertex="1" parent="1">
          <mxGeometry x="340" y="230" width="60" height="30" as="geometry" />
        </mxCell>
        <mxCell id="O-cmX9a5oAONbKl0CvVW-6" value="No" style="text;html=1;strokeColor=none;fillColor=none;align=center;verticalAlign=middle;whiteSpace=wrap;rounded=0;" vertex="1" parent="1">
          <mxGeometry x="660" y="230" width="60" height="30" as="geometry" />
        </mxCell>
        <mxCell id="O-cmX9a5oAONbKl0CvVW-8" value="Leap Year" style="rounded=1;whiteSpace=wrap;html=1;" vertex="1" parent="1">
          <mxGeometry x="470" y="425" width="120" height="60" as="geometry" />
        </mxCell>
        <mxCell id="O-cmX9a5oAONbKl0CvVW-9" value="Year / 400" style="rounded=1;whiteSpace=wrap;html=1;" vertex="1" parent="1">
          <mxGeometry x="230" y="425" width="120" height="60" as="geometry" />
        </mxCell>
        <mxCell id="O-cmX9a5oAONbKl0CvVW-10" value="Yes" style="text;html=1;strokeColor=none;fillColor=none;align=center;verticalAlign=middle;whiteSpace=wrap;rounded=0;" vertex="1" parent="1">
          <mxGeometry x="230" y="390" width="60" height="30" as="geometry" />
        </mxCell>
        <mxCell id="O-cmX9a5oAONbKl0CvVW-11" value="No" style="text;html=1;strokeColor=none;fillColor=none;align=center;verticalAlign=middle;whiteSpace=wrap;rounded=0;" vertex="1" parent="1">
          <mxGeometry x="530" y="390" width="60" height="30" as="geometry" />
        </mxCell>
        <mxCell id="O-cmX9a5oAONbKl0CvVW-12" value="" style="strokeWidth=2;html=1;shape=mxgraph.flowchart.annotation_2;align=left;labelPosition=right;pointerEvents=1;rotation=90;" vertex="1" parent="1">
          <mxGeometry x="242.5" y="410" width="95" height="242.5" as="geometry" />
        </mxCell>
        <mxCell id="O-cmX9a5oAONbKl0CvVW-13" value="Yes" style="text;html=1;strokeColor=none;fillColor=none;align=center;verticalAlign=middle;whiteSpace=wrap;rounded=0;" vertex="1" parent="1">
          <mxGeometry x="100" y="540" width="60" height="30" as="geometry" />
        </mxCell>
        <mxCell id="O-cmX9a5oAONbKl0CvVW-14" value="No" style="text;html=1;strokeColor=none;fillColor=none;align=center;verticalAlign=middle;whiteSpace=wrap;rounded=0;" vertex="1" parent="1">
          <mxGeometry x="410" y="540" width="60" height="30" as="geometry" />
        </mxCell>
        <mxCell id="O-cmX9a5oAONbKl0CvVW-15" value="Leap year" style="rounded=1;whiteSpace=wrap;html=1;" vertex="1" parent="1">
          <mxGeometry x="110" y="580" width="120" height="60" as="geometry" />
        </mxCell>
        <mxCell id="O-cmX9a5oAONbKl0CvVW-16" value="Not leap year" style="rounded=1;whiteSpace=wrap;html=1;" vertex="1" parent="1">
          <mxGeometry x="337.5" y="580" width="120" height="60" as="geometry" />
        </mxCell>
        <mxCell id="O-cmX9a5oAONbKl0CvVW-19" value="" style="strokeWidth=2;html=1;shape=mxgraph.flowchart.annotation_2;align=left;labelPosition=right;pointerEvents=1;rotation=90;" vertex="1" parent="1">
          <mxGeometry x="362.5" y="255" width="95" height="242.5" as="geometry" />
        </mxCell>
      </root>
    </mxGraphModel>
  </diagram>
</mxfile>
